<?xml version="1.0" encoding="UTF-8"?>
<svg version="1.1" xmlns="http://www.w3.org/2000/svg" width="512" height="512">
<path d="M0 0 C1.14122314 -0.00997513 2.28244629 -0.01995026 3.45825195 -0.03022766 C4.71131134 -0.03089233 5.96437073 -0.03155701 7.25540161 -0.03224182 C8.57429382 -0.04056534 9.89318604 -0.04888885 11.25204468 -0.0574646 C14.87193048 -0.07942216 18.49173181 -0.08821015 22.11167669 -0.09329104 C24.37329073 -0.09693314 26.6348826 -0.10317242 28.89648819 -0.11029243 C36.78664371 -0.13479131 44.67673344 -0.14783976 52.56692505 -0.15138245 C59.92144779 -0.15501809 67.2755533 -0.184914 74.6299485 -0.22678703 C80.94427448 -0.26147785 87.25846212 -0.27693067 93.57288277 -0.27762848 C97.34416169 -0.27842172 101.11501568 -0.28718117 104.88619614 -0.31562614 C108.43388643 -0.34178675 111.98079891 -0.34402426 115.52854156 -0.3279705 C117.44917173 -0.32528907 119.36978661 -0.34735355 121.2902832 -0.37016296 C129.73587748 -0.29826269 129.73587748 -0.29826269 133.71392822 2.64404297 C135.55381823 5.33862656 137.26697335 7.99017426 138.82229614 10.86009216 C139.71392456 12.487453 139.71392456 12.487453 140.62356567 14.14768982 C141.24602173 15.30317322 141.86847778 16.45865662 142.50979614 17.64915466 C143.16748229 18.85461903 143.82618753 20.0595279 144.48587036 21.26390076 C145.49701384 23.11000433 146.50762182 24.95637178 147.51513672 26.80445862 C150.82454818 32.87222996 154.2215793 38.88922768 157.63479614 44.89915466 C159.13511839 47.54379837 160.6351655 50.18824629 162.12014771 52.84153748 C163.04371093 54.4582599 163.99897521 56.05729441 164.98538208 57.63645935 C167.41470592 61.6273696 169.44425942 65.1904216 169.09280396 70.04026794 C167.70406296 75.36144888 164.65094509 80.00984262 161.88479614 84.71165466 C161.20491336 85.89595934 160.5267976 87.08128002 159.85037231 88.26756287 C158.45067474 90.71779054 157.0425344 93.16284795 155.62747192 95.60423279 C152.29925221 101.35635375 149.06612956 107.16163877 145.82229614 112.96165466 C145.24721313 113.98122253 144.67213013 115.00079041 144.07962036 116.05125427 C141.07336436 121.3945685 138.1967163 126.76302645 135.50979614 132.27415466 C136.43792114 132.95477966 137.36604614 133.63540466 138.32229614 134.33665466 C141.7538358 137.23963963 143.26674245 139.88690633 144.50979614 144.27415466 C144.64405203 149.48328306 143.97807175 154.22783312 140.50979614 158.27415466 C134.52499049 162.60138432 129.82378916 162.78189741 122.57229614 162.52415466 C121.60227661 162.50610779 120.63225708 162.48806091 119.63284302 162.46946716 C117.25739187 162.42266024 114.88431144 162.35356117 112.50979614 162.27415466 C112.52065101 162.91742712 112.53150588 163.56069958 112.54268968 164.22346514 C112.61178502 171.61904132 112.18093372 178.90362651 111.57415771 186.27154541 C111.47348004 187.53696739 111.37280236 188.80238938 111.26907384 190.10615748 C110.99183802 193.58908903 110.70917026 197.07156084 110.42553949 200.55397666 C110.11966578 204.32138457 109.81889013 208.08920008 109.5174408 211.85696411 C108.92693826 219.2272214 108.3316958 226.59708843 107.73473074 233.96682481 C107.24929491 239.96078657 106.76559606 245.95488619 106.28312302 251.94908714 C106.21431643 252.80391662 106.14550985 253.65874609 106.07461821 254.53947949 C105.93482065 256.27637205 105.79502712 258.01326494 105.6552376 259.75015815 C104.34554446 276.02065375 103.03047074 292.290711 101.71353512 308.56062176 C100.58546706 322.49873449 99.46196758 336.43720929 98.34182739 350.3759613 C97.03919238 366.58560523 95.73373267 382.79501761 94.42379701 399.00407332 C94.28389478 400.73530689 94.14399603 402.46654075 94.0041008 404.19777489 C93.93527947 405.04943424 93.86645813 405.90109358 93.79555131 406.77856079 C93.31249626 412.75871847 92.83143399 418.73903451 92.35115433 424.71941566 C91.76500625 432.01735843 91.17573359 439.31504109 90.58255412 446.61241583 C90.28040643 450.33042119 89.97959731 454.04852105 89.68259239 457.76694107 C89.35958593 461.8102909 89.02979133 465.85305974 88.69940186 469.89581299 C88.60795383 471.05372386 88.51650581 472.21163474 88.42228663 473.40463382 C86.20475649 500.21320357 86.20475649 500.21320357 78.50979614 507.05149841 C71.17999236 512.77790762 64.69136246 512.9874839 55.50979614 512.27415466 C49.32703811 510.66294927 44.90661796 506.59484017 41.50979614 501.27415466 C38.91703562 495.99833769 37.94179015 491.54782541 37.51951599 485.715271 C37.4490933 484.87738153 37.37867061 484.03949207 37.3061139 483.17621201 C37.07388172 480.37804166 36.85888747 477.57882026 36.64382935 474.77928162 C36.48006468 472.76310432 36.31523627 470.74701318 36.14942932 468.73100281 C35.70021968 463.2319088 35.26600553 457.73171973 34.83434319 452.2312243 C34.37167742 446.36895208 33.89516463 440.50780457 33.42024231 434.64651489 C32.51350884 423.42999232 31.6191573 412.2125176 30.72918719 400.99465388 C29.74810793 388.63540104 28.75382606 376.27722449 27.75805879 363.91914773 C26.00088003 342.10828113 24.25771924 320.29632368 22.5222609 298.48371911 C21.17416486 281.54481404 19.81079321 264.60720479 18.43540967 247.6704942 C17.86792218 240.6772457 17.30271183 233.68381272 16.73748153 226.69038147 C16.20673776 220.12712934 15.67233668 213.56418848 15.13521051 207.00145578 C14.80732971 202.98389484 14.48310519 198.966045 14.15990472 194.9481051 C14.01084893 193.10451183 13.86027511 191.26104052 13.7080152 189.41770911 C12.96029662 180.35750004 12.24867391 171.37545158 12.50979614 162.27415466 C11.84967529 162.29622986 11.18955444 162.31830505 10.50942993 162.34104919 C7.82228707 162.42545474 5.13529185 162.47414544 2.44729614 162.52415466 C1.50434692 162.55767029 0.56139771 162.59118591 -0.41012573 162.62571716 C-6.69323654 162.71328665 -10.40612206 162.05548225 -15.49020386 158.27415466 C-18.90418309 154.44179562 -19.80338666 150.19319655 -19.55270386 145.14915466 C-18.80607678 140.13828637 -17.08011504 137.77859177 -13.49020386 134.27415466 C-12.48902946 133.27533044 -11.48874294 132.27561345 -10.49020386 131.27415466 C-19.18248002 115.45794379 -27.91209933 99.66653269 -36.81832886 83.96946716 C-37.27401245 83.15768005 -37.72969604 82.34589294 -38.19918823 81.50950623 C-39.0077396 80.10952582 -39.84850455 78.72714145 -40.73434448 77.3747406 C-43.50522513 73.06798653 -44.55505534 69.28315252 -43.49020386 64.27415466 C-42.07128161 60.73168544 -40.22603977 57.50222767 -38.30270386 54.21165466 C-37.76532593 53.2613739 -37.227948 52.31109314 -36.67428589 51.33201599 C-35.53656482 49.32364376 -34.39154014 47.31939362 -33.23971558 45.31907654 C-31.52274877 42.33079717 -29.83236412 39.32910522 -28.15036011 36.32102966 C-24.95993883 30.62165466 -21.73164887 24.94463189 -18.49020386 19.27415466 C-17.99649292 18.4066156 -17.50278198 17.53907654 -16.99411011 16.64524841 C-15.62577413 14.24602516 -14.24758457 11.85280665 -12.86520386 9.46165466 C-12.46349976 8.75613464 -12.06179565 8.05061462 -11.6479187 7.32371521 C-8.44193195 1.82882229 -6.35843721 0.02975889 0 0 Z " fill="#2B495D" transform="translate(193.49020385742188,-0.2741546630859375)"/>
<path d="M0 0 C1.14122314 -0.00997513 2.28244629 -0.01995026 3.45825195 -0.03022766 C4.71131134 -0.03089233 5.96437073 -0.03155701 7.25540161 -0.03224182 C8.57429382 -0.04056534 9.89318604 -0.04888885 11.25204468 -0.0574646 C14.87193048 -0.07942216 18.49173181 -0.08821015 22.11167669 -0.09329104 C24.37329073 -0.09693314 26.6348826 -0.10317242 28.89648819 -0.11029243 C36.78664371 -0.13479131 44.67673344 -0.14783976 52.56692505 -0.15138245 C59.92144779 -0.15501809 67.2755533 -0.184914 74.6299485 -0.22678703 C80.94427448 -0.26147785 87.25846212 -0.27693067 93.57288277 -0.27762848 C97.34416169 -0.27842172 101.11501568 -0.28718117 104.88619614 -0.31562614 C108.43388643 -0.34178675 111.98079891 -0.34402426 115.52854156 -0.3279705 C117.44917173 -0.32528907 119.36978661 -0.34735355 121.2902832 -0.37016296 C129.73587748 -0.29826269 129.73587748 -0.29826269 133.71392822 2.64404297 C135.55381823 5.33862656 137.26697335 7.99017426 138.82229614 10.86009216 C139.71392456 12.487453 139.71392456 12.487453 140.62356567 14.14768982 C141.24602173 15.30317322 141.86847778 16.45865662 142.50979614 17.64915466 C143.16748229 18.85461903 143.82618753 20.0595279 144.48587036 21.26390076 C145.49701384 23.11000433 146.50762182 24.95637178 147.51513672 26.80445862 C150.82454818 32.87222996 154.2215793 38.88922768 157.63479614 44.89915466 C159.13511839 47.54379837 160.6351655 50.18824629 162.12014771 52.84153748 C163.04371093 54.4582599 163.99897521 56.05729441 164.98538208 57.63645935 C167.41470592 61.6273696 169.44425942 65.1904216 169.09280396 70.04026794 C167.70408288 75.36137257 164.65116344 80.01004506 161.88479614 84.71165466 C161.20422332 85.89598262 160.52537462 87.08130286 159.84817505 88.26756287 C158.4473229 90.71754047 157.03818195 93.16246198 155.62307739 95.60423279 C152.3029926 101.34854272 149.10473434 107.1608068 145.88479614 112.96165466 C144.77017531 114.96698969 143.65312895 116.97097918 142.53323364 118.97337341 C142.06836548 119.80699402 141.60349731 120.64061462 141.12454224 121.49949646 C140.59167603 122.41513367 140.05880981 123.33077087 139.50979614 124.27415466 C139.25676444 124.93053578 139.00373274 125.5869169 138.74303341 126.26318836 C137.59194501 128.78149415 136.55881239 130.3937276 134.50979614 132.27415466 C129.95303504 133.47657187 125.4005511 133.28611849 120.72341919 133.18235779 C119.30398181 133.18010012 117.8845351 133.18136999 116.46510315 133.18589783 C112.61759347 133.18819157 108.77208254 133.14119218 104.92503715 133.08530617 C100.90259701 133.03526419 96.88011 133.03059398 92.85740662 133.02110291 C85.24269858 132.9962466 77.62891038 132.93061075 70.01460725 132.85030699 C61.34489529 132.76085908 52.67513917 132.71689488 44.00508058 132.67674351 C26.17279776 132.59314283 8.34137093 132.45244766 -9.49020386 132.27415466 C-11.40824597 128.92078565 -13.32573676 125.56710169 -15.24313354 122.21336365 C-15.78235443 121.27064354 -16.32157532 120.32792343 -16.87713623 119.35663605 C-21.4720219 111.31864967 -26.010385 103.25100785 -30.50631714 95.1572113 C-32.99561438 90.68595205 -35.48674446 86.22792825 -38.15426636 81.86009216 C-38.53550659 81.22837097 -38.91674683 80.59664978 -39.30953979 79.94578552 C-40.26986194 78.36827206 -41.25006806 76.80290643 -42.23239136 75.23899841 C-44.24549347 70.49382916 -44.44992562 66.68330885 -42.56246948 61.94529724 C-41.23083762 59.30798461 -39.79356551 56.76232148 -38.30270386 54.21165466 C-37.76532593 53.2613739 -37.227948 52.31109314 -36.67428589 51.33201599 C-35.53656482 49.32364376 -34.39154014 47.31939362 -33.23971558 45.31907654 C-31.52274877 42.33079717 -29.83236412 39.32910522 -28.15036011 36.32102966 C-24.95993883 30.62165466 -21.73164887 24.94463189 -18.49020386 19.27415466 C-17.99649292 18.4066156 -17.50278198 17.53907654 -16.99411011 16.64524841 C-15.62577413 14.24602516 -14.24758457 11.85280665 -12.86520386 9.46165466 C-12.46349976 8.75613464 -12.06179565 8.05061462 -11.6479187 7.32371521 C-8.44193195 1.82882229 -6.35843721 0.02975889 0 0 Z " fill="#FAF3F4" transform="translate(193.49020385742188,-0.2741546630859375)"/>
<path d="M0 0 C16.5 0 33 0 50 0 C50 115.5 50 231 50 350 C42.64108601 350 38.66522406 349.3350237 33.265625 344.421875 C27.55282912 338.14345577 25.60927851 331.72236772 25.00971985 323.44111633 C24.93929716 322.60322687 24.86887447 321.7653374 24.79631776 320.90205735 C24.56408558 318.10388699 24.34909133 315.3046656 24.1340332 312.50512695 C23.97026854 310.48894965 23.80544012 308.47285852 23.63963318 306.45684814 C23.19042354 300.95775413 22.75620938 295.45756507 22.32454705 289.95706964 C21.86188128 284.09479741 21.38536848 278.23364991 20.91044617 272.37236023 C20.00371269 261.15583766 19.10936116 249.93836294 18.21939105 238.72049922 C17.23831179 226.36124638 16.24402992 214.00306983 15.24826264 201.64499307 C13.49108388 179.83412647 11.7479231 158.02216902 10.01246476 136.20956445 C8.66436872 119.27065937 7.30099707 102.33305012 5.92561352 85.39633954 C5.35812604 78.40309103 4.79291568 71.40965806 4.22768539 64.4162268 C3.69694162 57.85297467 3.16254054 51.29003382 2.62541437 44.72730112 C2.29753357 40.70974018 1.97330904 36.69189034 1.65010858 32.67395043 C1.50105278 30.83035717 1.35047897 28.98688586 1.19821906 27.14355445 C0.99025105 24.62357744 0.78779214 22.10321265 0.58659363 19.58268738 C0.49629481 18.51305542 0.49629481 18.51305542 0.40417176 17.42181474 C-0.05421162 11.56209612 0 5.93717608 0 0 Z " fill="#447799" transform="translate(206,162)"/>
<path d="M0 0 C7.88353305 -0.12677079 15.76680331 -0.21433995 23.65112305 -0.2746582 C26.33338454 -0.29697994 29.0150542 -0.33176794 31.69702148 -0.37719727 C35.55209255 -0.43784525 39.4062577 -0.46621127 43.26171875 -0.48828125 C45.06040657 -0.52699089 45.06040657 -0.52699089 46.89543152 -0.56648254 C55.19383504 -0.56927874 55.19383504 -0.56927874 59.08911133 2.18139648 C60.9613554 4.94299834 62.72236601 7.65178517 64.3125 10.5859375 C65.20412842 12.21329834 65.20412842 12.21329834 66.11376953 13.87353516 C66.73622559 15.02901855 67.35868164 16.18450195 68 17.375 C68.65768615 18.58046436 69.31639139 19.78537324 69.97607422 20.98974609 C70.9872177 22.83584966 71.99782568 24.68221712 73.00534058 26.53030396 C76.31475204 32.5980753 79.71178315 38.61507302 83.125 44.625 C84.62532224 47.26964371 86.12536936 49.91409162 87.61035156 52.56738281 C88.53391479 54.18410523 89.48917907 55.78313975 90.47558594 57.36230469 C92.90490978 61.35321494 94.93446328 64.91626694 94.58300781 69.76611328 C93.19428674 75.0872179 90.14136729 79.7358904 87.375 84.4375 C86.69442717 85.62182795 86.01557848 86.80714819 85.33837891 87.9934082 C83.93752675 90.44338581 82.52838581 92.88830732 81.11328125 95.33007812 C77.79319646 101.07438806 74.5949382 106.88665214 71.375 112.6875 C70.26037917 114.69283503 69.14333281 116.69682452 68.0234375 118.69921875 C67.55856934 119.53283936 67.09370117 120.36645996 66.61474609 121.2253418 C66.08187988 122.140979 65.54901367 123.05661621 65 124 C64.72100357 124.68969879 64.44200714 125.37939758 64.15455627 126.08999634 C62.99934825 128.5554519 62.02522585 130.16662666 60 132 C55.66842836 133.07245864 51.47457427 132.79175343 47.04296875 132.5625 C45.78486893 132.52898437 44.5267691 132.49546875 43.23054504 132.4609375 C39.89581043 132.3648566 36.5662081 132.23390172 33.23364258 132.08575439 C29.82920087 131.94307331 26.42348069 131.84655907 23.01757812 131.74609375 C16.34306223 131.53984538 9.67148389 131.28748198 3 131 C4.43861071 127.32423383 6.0566803 123.93214097 7.984375 120.484375 C8.58354736 119.40937744 9.18271973 118.33437988 9.80004883 117.22680664 C10.44353271 116.07946045 11.0870166 114.93211426 11.75 113.75 C12.41782524 112.55410212 13.08538345 111.3580551 13.75268555 110.16186523 C15.83091719 106.43888269 17.91492014 102.7191504 20 99 C20.68115828 97.78467129 21.3623107 96.56933931 22.04345703 95.35400391 C22.54007339 94.46804031 22.54007339 94.46804031 23.04672241 93.56417847 C24.01789546 91.83157505 24.98892946 90.0988937 25.95996094 88.36621094 C27.17420618 86.20079625 28.38965789 84.03605753 29.60644531 81.87207031 C30.15526367 80.89463867 30.70408203 79.91720703 31.26953125 78.91015625 C31.75010986 78.05558838 32.23068848 77.20102051 32.72583008 76.32055664 C33.14630615 75.55477295 33.56678223 74.78898926 34 74 C34.38736328 73.30398682 34.77472656 72.60797363 35.17382812 71.89086914 C36.58679108 68.65700446 35.83625337 66.37942719 35 63 C33.48532374 59.7434834 31.664616 56.69936615 29.8125 53.625 C28.71742561 51.75989155 27.62373479 49.89397023 26.53125 48.02734375 C25.95503906 47.04878418 25.37882812 46.07022461 24.78515625 45.06201172 C21.72340191 39.81029907 18.77146249 34.49759015 15.8125 29.1875 C14.63960753 27.08708063 13.46643672 24.98681666 12.29296875 22.88671875 C11.45838135 21.39277588 11.45838135 21.39277588 10.60693359 19.86865234 C9.11580125 17.20672512 7.61700104 14.54936355 6.11328125 11.89453125 C5.68748779 11.14212158 5.26169434 10.38971191 4.82299805 9.61450195 C4.04626902 8.24355227 3.26788651 6.87353755 2.48754883 5.50463867 C0 1.11042962 0 1.11042962 0 0 Z " fill="#FAF3F3" transform="translate(268,0)"/>
<path d="M0 0 C3.96 0 7.92 0 12 0 C19.04446031 12.26974681 26.02314732 24.57284839 32.89770508 36.9387207 C35.55752449 41.70706502 38.24171839 46.4489611 41.07421875 51.1171875 C41.54005371 51.88708008 42.00588867 52.65697266 42.48583984 53.45019531 C43.33616264 54.84413633 44.19633051 56.23214736 45.06884766 57.61230469 C47.63433552 61.81437789 49.18178962 65.04493434 49 70 C47.33360554 73.86861929 45.16922962 77.39590907 43 81 C41.98657269 82.85611062 40.98387361 84.71812054 39.9921875 86.5859375 C31.9404955 101.54988276 23.74379266 116.42701223 15 131 C32.49 131 49.98 131 68 131 C68 131.33 68 131.66 68 132 C23.12 132 -21.76 132 -68 132 C-68 131.67 -68 131.34 -68 131 C-50.51 131 -33.02 131 -15 131 C-23.08954652 116.42355298 -31.18816428 101.8531391 -39.34228516 87.31274414 C-40.40161745 85.42370178 -41.45979537 83.53401142 -42.51660156 81.64355469 C-43.50630128 79.87981726 -44.50307301 78.12002978 -45.50683594 76.36425781 C-46.19567871 75.15141113 -46.19567871 75.15141113 -46.8984375 73.9140625 C-47.30497559 73.20459473 -47.71151367 72.49512695 -48.13037109 71.76416016 C-49 70 -49 70 -49 68 C-32.83 68 -16.66 68 0 68 C0 45.56 0 23.12 0 0 Z " fill="#A2C3CB" transform="translate(256,0)"/>
<path d="M0 0 C1.83587929 -0.01496269 1.83587929 -0.01496269 3.70884705 -0.03022766 C5.06742846 -0.03112348 6.42601004 -0.03178704 7.78459167 -0.03224182 C9.21370884 -0.0398624 10.6428219 -0.04828972 12.07192993 -0.0574646 C15.95633667 -0.0794285 19.84066468 -0.08821118 23.7251265 -0.09329104 C26.15224725 -0.09693283 28.57934732 -0.103172 31.00646019 -0.11029243 C39.47483095 -0.13479491 47.9431404 -0.14784024 56.4115448 -0.15138245 C64.30339862 -0.15501687 72.19486332 -0.18490325 80.08659822 -0.22678703 C86.86293076 -0.26148929 93.63913438 -0.27693088 100.41555518 -0.27762848 C104.46239855 -0.27842142 108.50884579 -0.28716708 112.55559731 -0.31562614 C116.36346004 -0.34180564 120.17059824 -0.34401336 123.9785099 -0.3279705 C125.37409546 -0.32615578 126.76972265 -0.33284911 128.16521835 -0.34878922 C140.01644841 -0.47587888 140.01644841 -0.47587888 143.89303589 2.60848999 C147.69883729 7.12973123 149.47376133 10.98322724 149.0118866 16.89915466 C148.14988894 22.18786947 146.71097851 25.07388173 142.37712097 28.37852478 C136.80166245 31.44294697 130.61142717 30.83055675 124.4181366 30.79173279 C123.02945728 30.79715925 121.64078372 30.80428485 120.25212097 30.81297302 C116.49584225 30.83114738 112.74000492 30.82416355 108.98371887 30.81145668 C105.0445287 30.80129829 101.1053752 30.81073022 97.16618347 30.81700134 C90.55218248 30.82426952 83.9383604 30.81471195 77.3243866 30.79563904 C69.68810944 30.77387177 62.05225954 30.78092373 54.41599274 30.80294466 C47.84845586 30.82112243 41.28104727 30.82364541 34.71349335 30.81318998 C30.79587811 30.80696806 26.8784634 30.80608337 22.96086121 30.81933594 C19.27690221 30.83092863 15.59349169 30.82280724 11.90959167 30.79975891 C9.92026006 30.79198531 7.93088182 30.80379852 5.9415741 30.81626892 C-0.86417012 30.75199449 -5.36988475 30.43980415 -10.8631134 26.27415466 C-14.27709264 22.44179562 -15.17629621 18.19319655 -14.9256134 13.14915466 C-14.17967966 8.15062959 -12.49256708 5.73077721 -8.8631134 2.27415466 C-5.40166114 -0.03348018 -4.08239858 0.01780818 0 0 Z " fill="#182831" transform="translate(188.8631134033203,131.72584533691406)"/>
<path d="M0 0 C18.81 0 37.62 0 57 0 C59.0625 3.856875 61.125 7.71375 63.25 11.6875 C70.42541046 25.05113391 77.89885055 38.22809372 85.5234375 51.33984375 C86.09312256 52.32452637 86.09312256 52.32452637 86.67431641 53.32910156 C87.66955297 55.04851616 88.67046679 56.76464126 89.671875 58.48046875 C91 61 91 61 91 63 C62.785 63.495 62.785 63.495 34 64 C26.94522439 51.65414267 19.90239052 39.31244412 12.98388672 26.8918457 C10.47076487 22.38756882 7.95410483 17.88954572 5.3359375 13.4453125 C4.95469727 12.79554443 4.57345703 12.14577637 4.18066406 11.47631836 C3.21376178 9.83790647 2.23631086 8.2057317 1.2578125 6.57421875 C0 4 0 4 0 0 Z " fill="#E2E9EE" transform="translate(150,68)"/>
<path d="M0 0 C18.81 0 37.62 0 57 0 C56.16893429 4.98639427 55.69024963 7.07041991 53.33203125 11.17578125 C52.77507568 12.15683838 52.21812012 13.13789551 51.64428711 14.14868164 C51.03979736 15.1927417 50.43530762 16.23680176 49.8125 17.3125 C48.53872865 19.5466847 47.26530146 21.78106564 45.9921875 24.015625 C45.32783951 25.17515314 44.6634512 26.33465819 43.99902344 27.49414062 C40.17312094 34.18585801 36.45172603 40.9370069 32.70825195 47.67504883 C32.16386475 48.64982178 31.61947754 49.62459473 31.05859375 50.62890625 C30.58736084 51.47525635 30.11612793 52.32160645 29.63061523 53.19360352 C28.82346069 54.58276978 28.82346069 54.58276978 28 56 C27.7202684 56.69116913 27.4405368 57.38233826 27.15232849 58.0944519 C25.99765751 60.55876586 25.02502452 62.16832753 23 64 C18.668305 65.07209545 14.47461887 64.79175574 10.04296875 64.5625 C8.15581902 64.51222656 8.15581902 64.51222656 6.23054504 64.4609375 C2.89581043 64.3648566 -0.4337919 64.23390172 -3.76635742 64.08575439 C-7.17079913 63.94307331 -10.57651931 63.84655907 -13.98242188 63.74609375 C-20.65693777 63.53984538 -27.32851611 63.28748198 -34 63 C-32.56138929 59.32423383 -30.9433197 55.93214097 -29.015625 52.484375 C-28.1169873 50.87212036 -28.1169873 50.87212036 -27.20019531 49.22729492 C-26.55663086 48.0797876 -25.91306641 46.93228027 -25.25 45.75 C-24.58143732 44.55264006 -23.9131468 43.35512813 -23.24511719 42.1574707 C-20.16486255 36.63884195 -17.07210133 31.12722519 -13.97906494 25.61575317 C-13.01543026 23.89858994 -12.05214587 22.18123015 -11.08886719 20.46386719 C-9.88802055 18.32428116 -8.68561523 16.185569 -7.48144531 14.04785156 C-6.93584961 13.07686523 -6.39025391 12.10587891 -5.828125 11.10546875 C-5.3527832 10.26137451 -4.87744141 9.41728027 -4.38769531 8.54760742 C-2.8557175 5.73511824 -1.43227451 2.86454903 0 0 Z " fill="#E2E9EE" transform="translate(305,68)"/>
<path d="M0 0 C0.71244873 -0.00029205 1.42489746 -0.00058411 2.15893555 -0.00088501 C4.51273802 0.00050782 6.86622356 0.01606659 9.2199707 0.03173828 C10.85235928 0.03546858 12.4847501 0.03831547 14.11714172 0.04031372 C18.41291489 0.04794884 22.70855274 0.06759626 27.00427246 0.08972168 C31.38800221 0.11018273 35.77175383 0.11931599 40.15551758 0.12939453 C48.75649804 0.15084231 57.35734257 0.18602344 65.95825195 0.22705078 C65.95825195 10.12705078 65.95825195 20.02705078 65.95825195 30.22705078 C56.82191249 30.31757509 47.68587299 30.39089503 38.54918575 30.43429947 C34.30622068 30.45513598 30.06357948 30.48338094 25.82080078 30.52880859 C21.72294004 30.57240786 17.62539 30.59621748 13.52731514 30.60655975 C11.96725133 30.61392598 10.4072037 30.62831058 8.84727287 30.64997101 C6.65464993 30.67919392 4.4632955 30.68299917 2.27050781 30.68115234 C0.40186317 30.69447601 0.40186317 30.69447601 -1.50453186 30.70806885 C-6.39232989 30.0433882 -10.28321149 28.20109427 -13.63549805 24.43798828 C-16.34851404 18.94179209 -16.77593622 14.1530195 -15.04174805 8.22705078 C-11.36832827 1.82819052 -7.15491451 -0.02462965 0 0 Z " fill="#2B495D" transform="translate(190.041748046875,131.77294921875)"/>
<path d="M0 0 C3.96 0 7.92 0 12 0 C19.04446031 12.26974681 26.02314732 24.57284839 32.89770508 36.9387207 C35.55752449 41.70706502 38.24171839 46.4489611 41.07421875 51.1171875 C41.54005371 51.88708008 42.00588867 52.65697266 42.48583984 53.45019531 C43.33616264 54.84413633 44.19633051 56.23214736 45.06884766 57.61230469 C47.66741438 61.86855855 48.61767266 65.12375956 49 70 C48.67 69.34 48.34 68.68 48 68 C32.16 68 16.32 68 0 68 C0 45.56 0 23.12 0 0 Z " fill="#BBD0D5" transform="translate(256,0)"/>
<path d="M0 0 C16.17 0 32.34 0 49 0 C49 21.12 49 42.24 49 64 C26.56 64 4.12 64 -19 64 C-19 63.67 -19 63.34 -19 63 C-1.51 63 15.98 63 34 63 C25.91045348 48.42355298 17.81183572 33.8531391 9.65771484 19.31274414 C8.59838255 17.42370178 7.54020463 15.53401142 6.48339844 13.64355469 C5.49369872 11.87981726 4.49692699 10.12002978 3.49316406 8.36425781 C3.03393555 7.55569336 2.57470703 6.74712891 2.1015625 5.9140625 C1.69502441 5.20459473 1.28848633 4.49512695 0.86962891 3.76416016 C0 2 0 2 0 0 Z " fill="#BACFD4" transform="translate(207,68)"/>
<path d="M0 0 C3.96 0 7.92 0 12 0 C12 22.44 12 44.88 12 68 C-4.17 68 -20.34 68 -37 68 C-35.52369266 63.57107799 -34.21071316 60.28908157 -31.98046875 56.31640625 C-31.37654297 55.23496338 -30.77261719 54.15352051 -30.15039062 53.03930664 C-29.17875977 51.31828735 -29.17875977 51.31828735 -28.1875 49.5625 C-27.51326956 48.36017018 -26.83944667 47.15761174 -26.16601562 45.95483398 C-24.44868045 42.89087707 -22.72494015 39.83057945 -20.9989624 36.77148438 C-18.88013724 33.01412008 -16.76869048 29.25259564 -14.65527344 25.4921875 C-13.56273358 23.55848864 -12.46325241 21.62869314 -11.35644531 19.703125 C-9.12558633 15.82095897 -6.93590721 11.97325209 -5.05859375 7.90625 C-3.4375 4.5625 -3.4375 4.5625 0 0 Z " fill="#E2E8ED" transform="translate(244,0)"/>
</svg>
